<?xml version="1.0" encoding="UTF-8"?>
<svg xmlns="http://www.w3.org/2000/svg"
    xmlns:xlink="http://www.w3.org/1999/xlink" version="1.1" id="Layer_1" x="0px" y="0px" viewBox="0 0 189 100" style="enable-background:new 0 0 189 100;" xml:space="preserve">
    <style type="text/css"> .st0{fill:url(#SVGID_1_);} .st1{fill:url(#SVGID_2_);} .st2{fill:#FEFEFE;} </style>
    <g>
        <linearGradient id="SVGID_1_" gradientUnits="userSpaceOnUse" x1="0" y1="50" x2="188.3961" y2="50">
            <stop offset="0" style="stop-color:#423795"></stop>
            <stop offset="0.302" style="stop-color:#873695"></stop>
            <stop offset="0.5608" style="stop-color:#A93695"></stop>
            <stop offset="1" style="stop-color:#DC2329"></stop>
        </linearGradient>
        <path class="st0" d="M154.2,74.1c0.5-0.1,1-0.4,1.7-0.3c1.1,0.1,2.2-0.1,3.3-0.3c1.4-0.2,2.9-0.1,4.3-0.4c0.7-0.2,1.3-0.3,1.9-0.7 c0.4-0.2,0.5-0.6,0.6-1.1c0-0.6-0.2-1.1-0.3-1.7c-0.1-1.3,0.5-2.5,0.8-3.7c0.2-0.9,0.9-1.7,1-2.6c0.1-1.2,0.8-1.8,2.1-1.9 c2-0.1,4.1,0.3,6.1-0.4c1-0.3,1.8-0.8,2.5-1.4c1.5-1.2,2.2-2.9,2.8-4.6c0.4-1.2,1.1-2.1,1.7-3.1c0.8-1.3,1.9-2.2,3-3.2 c0.4-0.4,0.9-0.9,1.5-1.1c1.1-0.4,1.4-1.2,1.2-2.2c-0.1-0.7-0.3-1.5-1-1.9c-0.9-0.6-2-0.7-3.1-0.5c-1.4,0.3-2.8,0.2-4.1-0.6 c-0.8-0.5-1.5-1.3-2.1-2.1c-1.1-1.5-2-3-3-4.5c-0.7-1-1.6-1.9-2.6-2.6c-1.2-0.9-2.6-0.9-4-0.8c-0.8,0-1.5,0.3-2.2,0.8 c-0.7,0.5-1.2,1.4-2.3,1.2c-0.6,0.5-1.1,0.1-1.4-0.4c-1.2-1.5-2.9-1.8-4.9-1c-0.7,0.3-1.3,0.7-2,0.9c-0.7,0.3-0.7,0.3-1.2-0.3 c-0.9-1.2-1.4-2.5-2.2-3.7c-1.5-2.2-2.8-4.5-4.2-6.7c-1-1.7-2.1-3.3-3.2-4.9c-1-1.4-2-2.8-3-4.2c-1.2-1.6-2.4-3.2-3.5-4.9 c-0.8-1.1-2.2-1.3-3.2-0.4c-0.8,0.7-1.3,1.6-1.8,2.5c-0.3,0.6-0.8,1.1-1.2,1.6c-0.4,0.4-0.9,0.9-1.6,1c-1.4,0.1-2.7-0.1-3.9-1 c-1.2-0.9-2.3-1.9-3.4-2.9c-1.1-1-2.4-1.6-3.9-1.5c-1.1,0-2.3,0-3.4,0c-1,0-1.7-0.5-2.2-1.4c-0.5-0.9-0.9-1.8-1.1-2.7 c-0.8-2.9-3.6-3.9-5.9-4.3c-2.2-0.3-4.2,0.3-6.3,0.9c-2.6,0.8-5.1,1.8-7.5,3c-2,0.9-4.1,1.8-6.2,2.5c-2.2,0.7-4.4,1.3-6.7,1.3 c-0.6,0-1.2,0-1.8,0c-0.5,0-1-0.1-1.6-0.2c-1-0.2-2.1-0.1-3.1,0c-1,0.1-1.9,0.7-2.7,1.3c-1,0.6-1.6,1.6-1.6,2.8c0,1.5,0,3,0,4.5 c0,0.4-0.1,0.7-0.5,1c-1.2,1-2.4,2-3.2,3.3c-0.9,1.5-1.7,3-2,4.8c-0.2,1.2,0.1,2.1,1.1,2.7c0.5,0.3,1,0.4,1.4,0.7 c0.5,0.3,1,0.5,1.3,1.1c0.5,1,0.6,1.9,0,3.1c-0.5,1-1.2,1.7-2.2,2.2c-1.2,0.6-2.6,0.5-3.8,0.2c-2.1-0.5-4.1-1.4-6.2-2.1 c-1.4-0.5-2.9-0.5-4.3-0.1c-1.8,0.4-3.5,1.2-5.2,2c-1.7,0.8-3.4,1.1-5.2,1c-0.8-0.1-1.7-0.3-2.4-0.7c-0.8-0.5-1.6-1.1-2.3-1.8 c-1-0.9-2-2-3-3c-1.3-1.3-2.8-2.1-4.5-2.8c-0.9-0.3-1.9-0.4-2.8-0.6c-1.8-0.3-3.5-0.4-5.2,0.1c-3.1,1-5.9,2.5-7.8,5.3 c-0.7,1-1.4,2-1.8,3.2c-0.3,1-0.6,2.1-0.9,3.1c-0.3,0.9-1.3,1.6-2.2,1.7c-0.9,0.1-1.5-0.3-2-1.1c-0.6-1.2-2.4-1.6-3.7-0.7 c-1.5,0.9-1.6,2.5-2.1,3.9c0.2,2.8-0.3,5.5,0.4,8.3c0.3,1.2,0.9,2.1,1.6,3c0.8,1,2,1.7,3.1,2.3c0.7,0.4,1.5,0.9,2,1.6 c0.6,0.9,0.9,1.9,0.9,3c-0.1,1,0.1,2,0.6,2.9c0.4,0.6,0.9,0.9,1.6,0.9c0.7,0,1.4,0,2,0c1.9,0,3.3-0.8,4.2-2.4 c0.4-0.7,0.9-1.2,1.5-1.4c1-0.4,2-0.7,3.1-0.6c0.5,0,1-0.1,1.5-0.2c0.8-0.1,1.6-0.4,2.5-0.4c0.4,0,0.7,0.2,0.7,0.6 c0.2,0.9,0.2,0.9,1.1,0.9c0.5,0,0.8,0.2,0.9,0.6c0.1,0.3,0.2,0.6,0.7,0.7c1.5,0.5,1.5,1.9,1,3.1c-0.3,0.6-0.5,1.1-0.4,1.7 c0.1,0.7-0.1,1.2-0.4,1.8c-0.7,1.1-1.6,2.1-2.6,3c-1.5,1.4-3.3,2.4-5.2,3.2c-1,0.4-2,2.1-1.6,3.3c0.6,1.9,1.1,3.8,2.3,5.5 c1.1,1.7,2.4,3.2,4.1,4.4c0.4,0.2,0.7,0.6,0.5,1.2c-0.3,0.9,0.4,1.5,1,2c0.6,0.4,1.3,0.6,1.9,0c0.1-0.1,0.3-0.1,0.4-0.1 c1.9-0.1,3.7,0,5.4,1c2.2,1.3,4.2,2.7,6.5,3.6c0.7,0.3,1.3,0.8,2.1,0.8c0.6,0,0.7-0.1,0.7-0.7c0-2.8-0.1-5.6,0-8.4 c0-1.5-0.4-3-0.5-4.5c-0.1-1.1-0.4-2.1-0.4-3.2c0-0.8,0.1-1.7,0-2.5c-0.2-1.5,0.7-2.3,1.8-3c1.1-0.7,2.5-0.8,3.7-0.9 c1.7-0.1,3.4-0.1,5.1,0c1.1,0,2.2-0.3,3.2-0.6c1-0.4,2-0.3,3-0.4c0.3,0,0.5,0.1,0.7,0.2c0.5,0.3,1,0.7,1.5,1.1 c1.6,1.5,2.9,3.3,4.2,5c1,1.3,1.8,2.8,3,3.9c0.7,0.7,1.5,1,2.5,1c1.2,0,2.4-0.2,3.7-0.5c1.7-0.3,3.5-0.1,5.3,0.3 c0.5,0.1,1,0.1,1.4,0.3c1.2,0.5,2.4,1.2,3.5,1.8c2,1.2,2.7,3,3.1,5c0.1,0.7,0.3,1.4,0.6,2c0.7,1.1,1.4,2.1,2.3,3 c0.6,0.6,1.4,1.1,2,1.7c1.6,1.6,3.4,2.6,5.7,2.4c1.5-0.1,2.9-0.6,4.1-1.7c1.3-1.2,2.7-2.2,4.2-3c1.8-1,3.2-2.4,4.3-4 c0.8-1.2,1.7-1.5,3-1.6c1.5-0.1,3,0.4,4.4,0.8c0.8,0.3,1.6,0.4,2.4,0.4c0.5,0,0.9-0.2,1.2-0.7c0.2-0.4,0.5-0.7,0.8-1 c0.6-0.8,1.5-1.2,2.4-1.5c1.1-0.3,2.2-0.8,3.4-0.7c2.1,0.1,4.1,0,6.2,0.2c3.6,0.3,7.2,0,10.8,0.3c1.2,0.1,2.3,0.5,3.4,0.9 c0.3,0.1,0.5,0.3,0.7,0.5c0.3,0.3,0.6,0.7,1,1c1.4,1.1,3.6,1.2,4.8-0.5c0.5-0.7,0.6-1.6,0.7-2.3c0.1-1.8,0.3-3.7-0.2-5.5 c-0.2-0.9-0.3-1.9-0.7-2.8c-0.5-1.3-0.9-2.7-1.8-3.9C154.3,74.6,154.1,74.4,154.2,74.1z"></path>
        <linearGradient id="SVGID_2_" gradientUnits="userSpaceOnUse" x1="9.094947e-13" y1="50" x2="188.3961" y2="50">
            <stop offset="0" style="stop-color:#423795"></stop>
            <stop offset="0.302" style="stop-color:#873695"></stop>
            <stop offset="0.5608" style="stop-color:#A93695"></stop>
            <stop offset="1" style="stop-color:#DC2329"></stop>
        </linearGradient>
        <path class="st1" d="M154.2,74.1c-0.1,0.3,0,0.5,0.1,0.7c0.9,1.2,1.3,2.6,1.8,3.9c0.3,0.9,0.5,1.9,0.7,2.8c0.4,1.8,0.2,3.7,0.2,5.5 c0,0.7-0.1,1.6-0.7,2.3c-1.3,1.7-3.5,1.7-4.8,0.5c-0.4-0.3-0.7-0.7-1-1c-0.2-0.2-0.4-0.4-0.7-0.5c-1.1-0.4-2.2-0.8-3.4-0.9 c-3.6-0.3-7.2,0-10.8-0.3c-2.1-0.2-4.1-0.1-6.2-0.2c-1.2-0.1-2.3,0.4-3.4,0.7c-0.9,0.3-1.8,0.7-2.4,1.5c-0.3,0.3-0.6,0.6-0.8,1 c-0.2,0.5-0.6,0.7-1.2,0.7c-0.8,0-1.6-0.1-2.4-0.4c-1.4-0.5-2.9-0.9-4.4-0.8c-1.2,0.1-2.2,0.4-3,1.6c-1.1,1.7-2.5,3-4.3,4 c-1.5,0.9-2.9,1.9-4.2,3c-1.1,1-2.5,1.5-4.1,1.7c-2.3,0.2-4.2-0.8-5.7-2.4c-0.6-0.6-1.4-1.1-2-1.7c-0.9-0.9-1.6-2-2.3-3 c-0.4-0.6-0.5-1.3-0.6-2c-0.4-2-1.2-3.8-3.1-5c-1.1-0.7-2.3-1.3-3.5-1.8c-0.5-0.2-1-0.2-1.4-0.3c-1.7-0.5-3.5-0.7-5.3-0.3 c-1.2,0.2-2.4,0.5-3.7,0.5c-0.9,0-1.7-0.3-2.5-1c-1.2-1.2-2-2.6-3-3.9c-1.3-1.8-2.6-3.6-4.2-5c-0.5-0.4-1-0.8-1.5-1.1 c-0.2-0.1-0.4-0.2-0.7-0.2c-1,0.1-2,0-3,0.4c-1,0.4-2.1,0.7-3.2,0.6c-1.7,0-3.4-0.1-5.1,0c-1.3,0.1-2.6,0.2-3.7,0.9 c-1.1,0.7-1.9,1.5-1.8,3c0.1,0.8,0,1.7,0,2.5c0,1.1,0.3,2.2,0.4,3.2c0.1,1.5,0.6,3,0.5,4.5c-0.1,2.8,0,5.6,0,8.4 c0,0.6-0.2,0.7-0.7,0.7c-0.8,0-1.4-0.5-2.1-0.8c-2.3-0.9-4.4-2.4-6.5-3.6c-1.7-1-3.5-1.1-5.4-1c-0.1,0-0.3,0-0.4,0.1 c-0.7,0.6-1.4,0.4-1.9,0c-0.7-0.5-1.3-1.1-1-2c0.2-0.7-0.2-1-0.5-1.2c-1.7-1.2-2.9-2.7-4.1-4.4c-1.1-1.7-1.6-3.6-2.3-5.5 c-0.4-1.2,0.6-2.9,1.6-3.3c1.9-0.8,3.7-1.8,5.2-3.2c1-0.9,1.9-1.8,2.6-3c0.3-0.6,0.5-1.2,0.4-1.8c-0.1-0.6,0.1-1.1,0.4-1.7 c0.6-1.2,0.5-2.6-1-3.1c-0.4-0.1-0.6-0.4-0.7-0.7c-0.2-0.5-0.4-0.7-0.9-0.6c-0.9,0-0.9,0-1.1-0.9c-0.1-0.4-0.3-0.6-0.7-0.6 c-0.9-0.1-1.7,0.2-2.5,0.4c-0.5,0.1-1,0.2-1.5,0.2c-1.1-0.1-2.1,0.3-3.1,0.6c-0.7,0.2-1.2,0.7-1.5,1.4c-0.9,1.6-2.3,2.4-4.2,2.4 c-0.7,0-1.4,0-2,0c-0.7,0-1.2-0.3-1.6-0.9C8.1,62.7,8,61.7,8,60.7c0.1-1.1-0.3-2.1-0.9-3c-0.5-0.7-1.3-1.2-2-1.6 C4,55.5,2.8,54.9,2,53.8c-0.7-0.9-1.3-1.8-1.6-3c-0.7-2.8-0.2-5.5-0.4-8.3c0.5-1.4,0.6-2.9,2.1-3.9c1.4-0.8,3.1-0.4,3.7,0.7 c0.5,0.8,1,1.2,2,1.1c0.9-0.1,1.9-0.7,2.2-1.7c0.3-1,0.6-2.1,0.9-3.1c0.4-1.2,1.1-2.2,1.8-3.2c1.9-2.8,4.7-4.3,7.8-5.3 c1.6-0.5,3.4-0.5,5.2-0.1c1,0.2,1.9,0.3,2.8,0.6c1.7,0.6,3.2,1.5,4.5,2.8c1,1,1.9,2,3,3c0.7,0.7,1.5,1.3,2.3,1.8 c0.7,0.5,1.6,0.7,2.4,0.7c1.8,0.1,3.5-0.2,5.2-1c1.7-0.8,3.4-1.6,5.2-2c1.4-0.3,2.9-0.4,4.3,0.1c2.1,0.7,4.1,1.6,6.2,2.1 c1.2,0.3,2.6,0.3,3.8-0.2c0.9-0.4,1.7-1.2,2.2-2.2c0.6-1.1,0.5-2,0-3.1c-0.3-0.6-0.8-0.8-1.3-1.1c-0.5-0.2-1-0.4-1.4-0.7 c-1-0.6-1.3-1.5-1.1-2.7c0.3-1.8,1.1-3.3,2-4.8c0.8-1.3,2-2.4,3.2-3.3c0.4-0.3,0.5-0.6,0.5-1c0-1.5,0-3,0-4.5 c0-1.3,0.6-2.2,1.6-2.8c0.8-0.5,1.7-1.1,2.7-1.3c1-0.1,2.1-0.2,3.1,0c0.5,0.1,1,0.2,1.6,0.2c0.6,0,1.2,0,1.8,0 c2.3,0.1,4.5-0.5,6.7-1.3c2.1-0.7,4.2-1.6,6.2-2.5c2.4-1.1,4.9-2.2,7.5-3c2-0.6,4.1-1.2,6.3-0.9c2.3,0.4,5.1,1.3,5.9,4.3 c0.3,0.9,0.6,1.8,1.1,2.7c0.5,0.9,1.1,1.4,2.2,1.4c1.1,0,2.3,0,3.4,0c1.5-0.1,2.8,0.5,3.9,1.5c1.1,1,2.2,2,3.4,2.9 c1.2,0.9,2.5,1.1,3.9,1c0.7-0.1,1.2-0.5,1.6-1c0.4-0.5,0.9-1,1.2-1.6c0.4-0.9,1-1.8,1.8-2.5c1-0.9,2.4-0.7,3.2,0.4 c1.2,1.6,2.4,3.2,3.5,4.9c1,1.4,2,2.8,3,4.2c1.1,1.6,2.2,3.3,3.2,4.9c1.4,2.2,2.7,4.5,4.2,6.7c0.8,1.2,1.3,2.5,2.2,3.7 c0.5,0.6,0.4,0.6,1.2,0.3c0.7-0.2,1.3-0.6,2-0.9c2-0.8,3.7-0.5,4.9,1c0.4,0.5,0.8,0.9,1.4,0.4c1.1,0.2,1.6-0.7,2.3-1.2 c0.7-0.5,1.4-0.8,2.2-0.8c1.4-0.1,2.8-0.1,4,0.8c1,0.7,1.9,1.6,2.6,2.6c1,1.5,1.9,3.1,3,4.5c0.6,0.8,1.2,1.5,2.1,2.1 c1.3,0.8,2.6,0.9,4.1,0.6c1.1-0.3,2.1-0.1,3.1,0.5c0.6,0.4,0.8,1.2,1,1.9c0.2,1-0.1,1.8-1.2,2.2c-0.6,0.2-1.1,0.7-1.5,1.1 c-1,1-2.2,1.9-3,3.2c-0.6,1-1.3,2-1.7,3.1c-0.6,1.7-1.3,3.4-2.8,4.6c-0.8,0.6-1.6,1.1-2.5,1.4c-2,0.7-4.1,0.3-6.1,0.4 c-1.2,0.1-1.9,0.6-2.1,1.9c-0.1,1-0.7,1.7-1,2.6c-0.3,1.2-0.9,2.4-0.8,3.7c0.1,0.6,0.3,1.1,0.3,1.7c0,0.5-0.2,0.8-0.6,1.1 c-0.6,0.3-1.2,0.5-1.9,0.7c-1.4,0.3-2.9,0.2-4.3,0.4c-1.1,0.1-2.2,0.4-3.3,0.3C155.3,73.7,154.7,74,154.2,74.1z"></path>
    </g>
    <path class="st2" d="M38.6,58h6.6c0.2,0.8,0.5,1.3,1,1.6c0.5,0.3,1.2,0.5,2.1,0.5c0.8,0,1.4-0.1,1.9-0.4c0.5-0.3,0.7-0.6,0.7-1.1 c0-0.8-0.9-1.4-2.8-1.8c-0.4-0.1-0.7-0.2-0.9-0.2c-1.6-0.4-2.8-0.8-3.7-1.1c-0.9-0.3-1.6-0.6-2-0.9c-0.8-0.6-1.4-1.3-1.8-2.1 c-0.4-0.8-0.6-1.7-0.6-2.7c0-2.1,0.8-3.7,2.4-4.9c1.6-1.2,3.7-1.8,6.5-1.8c2.7,0,4.8,0.6,6.4,1.7c1.6,1.1,2.4,2.7,2.6,4.8h-6.4 c-0.1-0.6-0.4-1.1-0.8-1.4c-0.4-0.3-1.1-0.5-1.9-0.5c-0.7,0-1.3,0.1-1.6,0.4c-0.4,0.2-0.5,0.6-0.5,1.1c0,0.7,0.9,1.3,2.8,1.7 c0.2,0,0.3,0.1,0.4,0.1c0.3,0.1,0.7,0.2,1.2,0.3c2.4,0.6,4,1.2,4.8,1.7c0.9,0.6,1.6,1.3,2,2.1c0.4,0.8,0.6,1.7,0.6,2.8 c0,2.3-0.8,4.1-2.4,5.3c-1.6,1.2-3.9,1.9-7,1.9c-2.8,0-5-0.6-6.6-1.9C39.7,62,38.8,60.2,38.6,58L38.6,58z"></path>
    <path id="_x31_" class="st2" d="M74.1,56.4h6.4c-0.2,2.7-1.2,4.9-2.9,6.4c-1.8,1.5-4.1,2.3-7.2,2.3c-3.4,0-6-1-8-2.9 c-1.9-2-2.9-4.6-2.9-8c0-3.4,1-6.1,2.9-8c1.9-2,4.5-2.9,7.8-2.9c3,0,5.4,0.7,7.2,2.2c1.7,1.5,2.7,3.5,2.9,6.2h-6.5 c-0.1-1.1-0.4-1.9-1-2.4c-0.6-0.5-1.4-0.8-2.5-0.8c-1.3,0-2.3,0.5-3,1.4c-0.7,1-1,2.4-1,4.3c0,1.9,0.4,3.3,1.1,4.3 c0.7,1,1.7,1.5,3.1,1.5c1,0,1.9-0.3,2.5-0.9C73.6,58.4,74,57.5,74.1,56.4L74.1,56.4z"></path>
    <polygon id="_x32_" class="st2" points="83.3,64.5 83.3,43.7 90,43.7 90,50.6 96.1,43.7 103.9,43.7 96.4,51.3 104.9,64.5 96.8,64.5 91.7,56.1 90,57.9 90,64.5 "></polygon>
    <path class="st2" d="M107.5,49.1c0.3,0.2,1,0.4,1.7,0.4c1.6,0,2.4-0.8,2.4-1.8c0-0.8-0.5-1.4-1.5-1.7c-0.8-0.3-1.1-0.5-1.1-0.8 c0-0.3,0.3-0.6,0.9-0.6s1,0.2,1.2,0.3l0.3-1.1c-0.3-0.2-0.8-0.3-1.5-0.3c-1.4,0-2.2,0.8-2.2,1.8c0,0.9,0.6,1.4,1.6,1.7 c0.7,0.3,1,0.5,1,0.8c0,0.4-0.3,0.6-0.9,0.6c-0.6,0-1.1-0.2-1.5-0.4L107.5,49.1L107.5,49.1z"></path>
    <path id="_x31__1_" class="st2" d="M116,46.9c0-1-0.5-1.8-1.9-1.8c-0.8,0-1.4,0.2-1.7,0.4l0.2,0.9c0.3-0.2,0.7-0.3,1.2-0.3 c0.7,0,0.8,0.3,0.8,0.5v0.1c-1.5,0-2.5,0.5-2.5,1.6c0,0.7,0.5,1.3,1.4,1.3c0.5,0,0.9-0.2,1.2-0.5h0l0.1,0.4h1.2c0-0.2-0.1-0.6-0.1-1 V46.9L116,46.9z M114.7,47.9c0,0.1,0,0.2,0,0.2c-0.1,0.3-0.4,0.5-0.7,0.5c-0.3,0-0.5-0.2-0.5-0.5c0-0.5,0.5-0.7,1.2-0.7L114.7,47.9 L114.7,47.9z"></path>
    <polygon id="_x32__1_" class="st2" points="117.1,49.4 118.4,49.4 118.4,43.2 117.1,43.2 "></polygon>
    <path id="_x33_" class="st2" d="M123.2,47.7c0-0.1,0-0.3,0-0.5c0-1.1-0.5-2.1-1.9-2.1c-1.5,0-2.1,1.2-2.1,2.3c0,1.3,0.8,2.2,2.3,2.2 c0.6,0,1.1-0.1,1.5-0.3l-0.2-0.9c-0.4,0.1-0.7,0.2-1.2,0.2c-0.6,0-1.2-0.3-1.2-0.8L123.2,47.7L123.2,47.7z M120.5,46.8 c0-0.4,0.3-0.9,0.8-0.9c0.6,0,0.7,0.5,0.7,0.9H120.5z"></path>
    <path id="_x34_" class="st2" d="M123.8,49.2c0.3,0.2,0.8,0.3,1.4,0.3c1.2,0,1.8-0.6,1.8-1.4c0-0.6-0.3-1-1.2-1.3 c-0.5-0.2-0.7-0.3-0.7-0.5c0-0.2,0.2-0.3,0.5-0.3c0.4,0,0.7,0.1,0.9,0.2l0.2-0.9c-0.3-0.1-0.7-0.2-1.2-0.2c-1.1,0-1.7,0.6-1.7,1.4 c0,0.5,0.3,1,1.2,1.3c0.5,0.2,0.6,0.3,0.6,0.5c0,0.2-0.2,0.4-0.6,0.4c-0.4,0-0.9-0.2-1.1-0.3L123.8,49.2L123.8,49.2z"></path>
    <path class="st2" d="M112,56c-0.3,0.1-0.7,0.2-1.1,0.2c-1.2,0-1.9-0.8-1.9-2c0-1.4,0.8-2,1.9-2c0.5,0,0.9,0.1,1.1,0.2l0.3-1.1 c-0.2-0.1-0.8-0.3-1.5-0.3c-1.8,0-3.3,1.2-3.3,3.3c0,1.8,1.1,3.1,3.1,3.1c0.7,0,1.3-0.1,1.5-0.3L112,56L112,56z"></path>
    <path id="_x31__2_" class="st2" d="M116.7,55.4c0-0.1,0-0.3,0-0.5c0-1.1-0.5-2.2-1.9-2.2c-1.5,0-2.2,1.3-2.2,2.4 c0,1.4,0.8,2.3,2.3,2.3c0.6,0,1.1-0.1,1.6-0.3l-0.2-0.9c-0.4,0.1-0.7,0.2-1.2,0.2c-0.6,0-1.2-0.3-1.2-0.9L116.7,55.4L116.7,55.4z M113.9,54.5c0-0.4,0.3-0.9,0.8-0.9c0.6,0,0.8,0.6,0.8,0.9H113.9z"></path>
    <path id="_x32__2_" class="st2" d="M117.5,57.2h1.3v-2.6c0-0.1,0-0.3,0.1-0.3c0.1-0.3,0.3-0.5,0.7-0.5c0.5,0,0.7,0.4,0.7,1v2.5h1.3 v-2.7c0-1.3-0.7-1.9-1.6-1.9c-0.7,0-1.2,0.4-1.3,0.7h0l-0.1-0.6h-1.2c0,0.4,0,0.9,0,1.4L117.5,57.2L117.5,57.2z"></path>
    <path id="_x33__1_" class="st2" d="M122.9,51.9v0.8h-0.6v1h0.6v1.8c0,0.6,0.1,1.1,0.4,1.3c0.2,0.2,0.6,0.4,1,0.4 c0.4,0,0.7-0.1,0.9-0.1l0-1.1c-0.1,0-0.2,0-0.4,0c-0.4,0-0.5-0.2-0.5-0.8v-1.6h1v-1h-1v-1.2L122.9,51.9L122.9,51.9z"></path>
    <path id="_x34__1_" class="st2" d="M129.7,55.4c0-0.1,0-0.3,0-0.5c0-1.1-0.5-2.2-1.9-2.2c-1.5,0-2.2,1.3-2.2,2.4 c0,1.4,0.8,2.3,2.3,2.3c0.6,0,1.1-0.1,1.6-0.3l-0.2-0.9c-0.4,0.1-0.7,0.2-1.2,0.2c-0.6,0-1.2-0.3-1.2-0.9 C126.9,55.4,129.7,55.4,129.7,55.4z M126.9,54.5c0-0.4,0.3-0.9,0.8-0.9c0.6,0,0.8,0.6,0.8,0.9H126.9z"></path>
    <path id="_x35_" class="st2" d="M130.6,57.2h1.3V55c0-0.1,0-0.2,0-0.3c0.1-0.4,0.4-0.7,0.9-0.7c0.2,0,0.3,0,0.4,0v-1.3 c-0.1,0-0.2,0-0.3,0c-0.4,0-0.9,0.3-1.2,0.9h0l0-0.8h-1.2c0,0.4,0,0.8,0,1.5V57.2z"></path>
    <path class="st2" d="M137.2,52.7c-1.3,0-2.2,0.9-2.2,2.2s0.9,2.1,2.2,2.1c1.1,0,2.2-0.7,2.2-2.2C139.3,53.6,138.5,52.7,137.2,52.7z M137.2,53.6c0.6,0,0.8,0.6,0.8,1.2c0,0.7-0.3,1.2-0.8,1.2c-0.6,0-0.9-0.5-0.9-1.2C136.3,54.3,136.5,53.6,137.2,53.6z"></path>
    <path id="_x31__3_" class="st2" d="M141.6,56.9v-3.2h0.8v-0.9h-0.8v-0.2c0-0.4,0.2-0.7,0.6-0.7c0.2,0,0.3,0,0.4,0.1l0.1-1 c-0.2-0.1-0.4-0.1-0.7-0.1c-0.4,0-0.8,0.1-1.2,0.4c-0.4,0.3-0.5,0.9-0.5,1.4v0.2h-0.5v0.9h0.5v3.2L141.6,56.9L141.6,56.9z"></path>
    <path class="st2" d="M107.5,64.9h1.3V63l0.5-0.6l1.4,2.6h1.6l-2.1-3.4l1.9-2.5h-1.6l-1.3,2c-0.1,0.2-0.3,0.4-0.4,0.6h0V59h-1.3 L107.5,64.9L107.5,64.9z"></path>
    <path id="_x31__4_" class="st2" d="M116.4,62.4c0-1-0.5-1.9-1.9-1.9c-0.8,0-1.4,0.2-1.7,0.4l0.2,0.9c0.3-0.2,0.7-0.3,1.2-0.3 c0.7,0,0.8,0.3,0.8,0.6v0.1c-1.5,0-2.5,0.5-2.5,1.6c0,0.7,0.5,1.3,1.4,1.3c0.5,0,0.9-0.2,1.2-0.5h0l0.1,0.4h1.2c0-0.2-0.1-0.6-0.1-1 V62.4L116.4,62.4z M115.1,63.4c0,0.1,0,0.2,0,0.2c-0.1,0.3-0.4,0.5-0.7,0.5c-0.3,0-0.5-0.2-0.5-0.5c0-0.5,0.5-0.7,1.2-0.7V63.4z"></path>
    <path id="_x32__3_" class="st2" d="M117.1,64.9h3.7v-1.1h-2.1v0c0.2-0.2,0.5-0.5,0.7-0.8l1.3-1.6v-0.8h-3.5v1.1h1.9v0 c-0.2,0.3-0.4,0.5-0.7,0.8l-1.3,1.7L117.1,64.9L117.1,64.9z"></path>
    <path id="_x33__2_" class="st2" d="M125.1,62.4c0-1-0.5-1.9-1.9-1.9c-0.8,0-1.4,0.2-1.7,0.4l0.2,0.9c0.3-0.2,0.7-0.3,1.2-0.3 c0.7,0,0.8,0.3,0.8,0.6v0.1c-1.5,0-2.5,0.5-2.5,1.6c0,0.7,0.5,1.3,1.4,1.3c0.5,0,0.9-0.2,1.2-0.5h0l0.1,0.4h1.2c0-0.2-0.1-0.6-0.1-1 V62.4L125.1,62.4z M123.8,63.4c0,0.1,0,0.2,0,0.2c-0.1,0.3-0.4,0.5-0.7,0.5c-0.3,0-0.5-0.2-0.5-0.5c0-0.5,0.5-0.7,1.2-0.7V63.4z"></path>
    <path id="_x34__2_" class="st2" d="M127.5,58.7h-1.3v6.2h1.3v-1.3l0.3-0.4l1,1.8h1.6l-1.7-2.6l1.5-1.7h-1.6l-0.9,1.3 c-0.1,0.2-0.2,0.3-0.3,0.5h0L127.5,58.7L127.5,58.7z"></path>
    <path id="_x35__1_" class="st2" d="M131,64.9h1.3v-2.5c0-0.1,0-0.2,0-0.3c0.1-0.2,0.3-0.5,0.7-0.5c0.5,0,0.7,0.4,0.7,0.9v2.4h1.3 v-2.5c0-1.3-0.6-1.9-1.5-1.9c-0.2,0-0.5,0.1-0.7,0.2c-0.2,0.1-0.4,0.3-0.5,0.4h0v-2.5H131L131,64.9L131,64.9z"></path>
    <path id="_x36_" class="st2" d="M135.9,64.7c0.3,0.2,0.8,0.3,1.4,0.3c1.2,0,1.9-0.6,1.9-1.4c0-0.6-0.3-1-1.2-1.3 c-0.5-0.2-0.7-0.3-0.7-0.5c0-0.2,0.2-0.4,0.5-0.4c0.4,0,0.7,0.1,0.9,0.2l0.2-0.9c-0.3-0.1-0.7-0.2-1.2-0.2c-1.1,0-1.7,0.6-1.7,1.4 c0,0.5,0.3,1,1.2,1.3c0.5,0.2,0.6,0.3,0.6,0.5c0,0.2-0.2,0.4-0.6,0.4c-0.4,0-0.9-0.2-1.1-0.3L135.9,64.7L135.9,64.7z"></path>
    <path id="_x37_" class="st2" d="M140.1,59.8v0.8h-0.6v1h0.6v1.8c0,0.6,0.1,1,0.4,1.3c0.2,0.2,0.6,0.4,1,0.4c0.4,0,0.7-0.1,0.9-0.1 l0-1c-0.1,0-0.2,0-0.4,0c-0.4,0-0.5-0.2-0.5-0.8v-1.6h1v-1h-1v-1.2L140.1,59.8L140.1,59.8z"></path>
    <path id="_x38_" class="st2" d="M146.7,62.4c0-1-0.5-1.9-1.9-1.9c-0.8,0-1.4,0.2-1.7,0.4l0.2,0.9c0.3-0.2,0.7-0.3,1.2-0.3 c0.7,0,0.8,0.3,0.8,0.6v0.1c-1.5,0-2.5,0.5-2.5,1.6c0,0.7,0.5,1.3,1.4,1.3c0.5,0,0.9-0.2,1.2-0.5h0l0.1,0.4h1.2c0-0.2-0.1-0.6-0.1-1 V62.4L146.7,62.4z M145.4,63.4c0,0.1,0,0.2,0,0.2c-0.1,0.3-0.4,0.5-0.7,0.5c-0.3,0-0.5-0.2-0.5-0.5c0-0.5,0.5-0.7,1.2-0.7 L145.4,63.4L145.4,63.4z"></path>
    <path id="_x39_" class="st2" d="M147.7,64.9h1.3v-2.5c0-0.1,0-0.2,0.1-0.3c0.1-0.2,0.3-0.5,0.7-0.5c0.5,0,0.7,0.4,0.7,0.9v2.4h1.3 v-2.5c0-1.3-0.7-1.8-1.5-1.8c-0.7,0-1.1,0.4-1.3,0.7h0l-0.1-0.6h-1.2c0,0.4,0,0.8,0,1.4L147.7,64.9L147.7,64.9z"></path>
</svg> 